<mxfile host="drawio-plugin" modified="2022-03-30T19:51:11.390Z" agent="5.0 (Macintosh; Intel Mac OS X 12_3_0) AppleWebKit/537.36 (KHTML, like Gecko) Chrome/89.0.4389.114 Safari/537.36" etag="gprgiKChiw_wYL4fpfv2" version="15.5.4" type="embed"><diagram id="23iRSUPoRavnBvh4doch" name="Page-1"><mxGraphModel dx="2322" dy="1520" grid="0" gridSize="10" guides="1" tooltips="1" connect="1" arrows="1" fold="1" page="0" pageScale="1" pageWidth="827" pageHeight="1169" math="0" shadow="0"><root><mxCell id="0"/><mxCell id="1" parent="0"/><mxCell id="47" value="browEx" style="swimlane;fillColor=#0050ef;fontColor=#ffffff;strokeColor=#001DBC;" parent="1" vertex="1"><mxGeometry x="-631" y="-20" width="1568" height="634" as="geometry"/></mxCell><mxCell id="50" value="AnalyticsContextProvider" style="swimlane;startSize=23;" parent="47" vertex="1"><mxGeometry x="54" y="145" width="301" height="334" as="geometry"/></mxCell><mxCell id="51" value="&lt;pre style=&quot;background-color: #000000 ; color: #a9b7c6 ; font-family: &amp;#34;jetbrains mono&amp;#34; , monospace ; font-size: 9.8pt&quot;&gt;&lt;span style=&quot;color: #ffc66d&quot;&gt;init&lt;/span&gt;&lt;/pre&gt;" style="rounded=1;whiteSpace=wrap;html=1;" parent="50" vertex="1"><mxGeometry x="90.5" y="40" width="120" height="60" as="geometry"/></mxCell><mxCell id="57" style="edgeStyle=none;rounded=0;orthogonalLoop=1;jettySize=auto;html=1;" parent="50" source="52" target="56" edge="1"><mxGeometry relative="1" as="geometry"/></mxCell><mxCell id="52" value="&lt;pre style=&quot;background-color: #000000 ; color: #a9b7c6 ; font-family: &amp;#34;jetbrains mono&amp;#34; , monospace ; font-size: 9.8pt&quot;&gt;onPostHogFlagsUpdated&lt;/pre&gt;" style="rounded=1;whiteSpace=wrap;html=1;" parent="50" vertex="1"><mxGeometry x="55" y="153" width="205" height="60" as="geometry"/></mxCell><mxCell id="56" value="&lt;pre style=&quot;background-color: #000000 ; color: #a9b7c6 ; font-family: &amp;#34;jetbrains mono&amp;#34; , monospace ; font-size: 9.8pt&quot;&gt;&lt;pre style=&quot;font-family: &amp;#34;jetbrains mono&amp;#34; , monospace ; font-size: 9.8pt&quot;&gt;flags : State&lt;/pre&gt;&lt;/pre&gt;" style="rounded=0;whiteSpace=wrap;html=1;" parent="50" vertex="1"><mxGeometry x="90.5" y="251" width="120" height="60" as="geometry"/></mxCell><mxCell id="35" value="posthog-sdk" style="swimlane;fillColor=#008a00;fontColor=#ffffff;strokeColor=#005700;" parent="47" vertex="1"><mxGeometry x="497" y="52" width="279" height="560" as="geometry"/></mxCell><mxCell id="68" value="" style="edgeStyle=none;rounded=0;orthogonalLoop=1;jettySize=auto;html=1;" parent="35" source="36" target="67" edge="1"><mxGeometry relative="1" as="geometry"/></mxCell><mxCell id="36" value="&lt;pre style=&quot;background-color: #000000 ; color: #a9b7c6 ; font-family: &amp;#34;jetbrains mono&amp;#34; , monospace ; font-size: 9.8pt&quot;&gt;&lt;pre style=&quot;font-family: &amp;#34;jetbrains mono&amp;#34; , monospace ; font-size: 9.8pt&quot;&gt;&lt;span style=&quot;color: #ffc66d&quot;&gt;watchPostHogUpdates&lt;/span&gt;&lt;/pre&gt;&lt;/pre&gt;" style="rounded=1;whiteSpace=wrap;html=1;" parent="35" vertex="1"><mxGeometry x="45" y="172.5" width="170" height="51" as="geometry"/></mxCell><mxCell id="44" value="&lt;pre style=&quot;background-color: #000000 ; color: #a9b7c6 ; font-family: &amp;#34;jetbrains mono&amp;#34; , monospace ; font-size: 9.8pt&quot;&gt;&lt;span style=&quot;color: #9876aa ; font-weight: bold ; font-style: italic&quot;&gt;postHogFlagsUpdated&lt;/span&gt;&lt;/pre&gt;&lt;pre style=&quot;background-color: #000000 ; color: #a9b7c6 ; font-family: &amp;#34;jetbrains mono&amp;#34; , monospace ; font-size: 9.8pt&quot;&gt;&lt;span style=&quot;color: #9876aa ; font-weight: bold ; font-style: italic&quot;&gt;:Signal&lt;/span&gt;&lt;/pre&gt;" style="rounded=0;whiteSpace=wrap;html=1;" parent="35" vertex="1"><mxGeometry x="32" y="283" width="188" height="87" as="geometry"/></mxCell><mxCell id="67" value="" style="rhombus;whiteSpace=wrap;html=1;rounded=1;" parent="35" vertex="1"><mxGeometry x="90" y="47" width="80" height="80" as="geometry"/></mxCell><mxCell id="72" value="&lt;pre style=&quot;background-color: #000000 ; color: #a9b7c6 ; font-family: &amp;#34;jetbrains mono&amp;#34; , monospace ; font-size: 9.8pt&quot;&gt;&lt;pre style=&quot;font-family: &amp;#34;jetbrains mono&amp;#34; , monospace ; font-size: 9.8pt&quot;&gt;&lt;pre style=&quot;font-family: &amp;#34;jetbrains mono&amp;#34; , monospace ; font-size: 9.8pt&quot;&gt;&lt;span style=&quot;color: #ffc66d&quot;&gt;checkPostHogFeatureFlag&lt;/span&gt;&lt;/pre&gt;&lt;/pre&gt;&lt;/pre&gt;" style="rounded=1;whiteSpace=wrap;html=1;" parent="35" vertex="1"><mxGeometry x="36.5" y="430" width="206" height="51" as="geometry"/></mxCell><mxCell id="58" style="edgeStyle=none;rounded=0;orthogonalLoop=1;jettySize=auto;html=1;" parent="47" source="51" target="36" edge="1"><mxGeometry relative="1" as="geometry"/></mxCell><mxCell id="33" value="posthog-js" style="swimlane;fillColor=#008a00;fontColor=#ffffff;strokeColor=#005700;" parent="47" vertex="1"><mxGeometry x="970" y="55" width="508" height="537" as="geometry"/></mxCell><mxCell id="66" value="" style="edgeStyle=none;rounded=0;orthogonalLoop=1;jettySize=auto;html=1;" parent="33" source="34" target="65" edge="1"><mxGeometry relative="1" as="geometry"/></mxCell><mxCell id="34" value="&lt;pre style=&quot;background-color: #000000 ; color: #a9b7c6 ; font-family: &amp;#34;jetbrains mono&amp;#34; , monospace ; font-size: 9.8pt&quot;&gt;&lt;span style=&quot;color: #ffc66d ; font-style: italic&quot;&gt;onFeatureFlags&lt;/span&gt;&lt;/pre&gt;" style="rounded=1;whiteSpace=wrap;html=1;" parent="33" vertex="1"><mxGeometry x="77" y="172" width="120" height="60" as="geometry"/></mxCell><mxCell id="64" style="edgeStyle=none;rounded=0;orthogonalLoop=1;jettySize=auto;html=1;" parent="33" source="59" target="34" edge="1"><mxGeometry relative="1" as="geometry"/></mxCell><mxCell id="59" value="&lt;pre style=&quot;background-color: #000000 ; color: #a9b7c6 ; font-family: &amp;#34;jetbrains mono&amp;#34; , monospace ; font-size: 9.8pt&quot;&gt;&lt;pre style=&quot;font-family: &amp;#34;jetbrains mono&amp;#34; , monospace ; font-size: 9.8pt&quot;&gt;&lt;span style=&quot;color: #ffc66d ; font-style: italic&quot;&gt;reloadFeatureFlags&lt;/span&gt;&lt;/pre&gt;&lt;/pre&gt;" style="rounded=1;whiteSpace=wrap;html=1;" parent="33" vertex="1"><mxGeometry x="56" y="61" width="166" height="60" as="geometry"/></mxCell><mxCell id="65" value="" style="rhombus;whiteSpace=wrap;html=1;rounded=1;" parent="33" vertex="1"><mxGeometry x="97" y="290.5" width="80" height="80" as="geometry"/></mxCell><mxCell id="71" value="&lt;pre style=&quot;background-color: #000000 ; color: #a9b7c6 ; font-family: &amp;#34;jetbrains mono&amp;#34; , monospace ; font-size: 9.8pt&quot;&gt;&lt;pre style=&quot;font-family: &amp;#34;jetbrains mono&amp;#34; , monospace ; font-size: 9.8pt&quot;&gt;&lt;span style=&quot;color: #9876aa&quot;&gt;featureFlagEventHandlers&lt;/span&gt;&lt;/pre&gt;&lt;/pre&gt;&lt;pre style=&quot;background-color: #000000 ; color: #a9b7c6 ; font-family: &amp;#34;jetbrains mono&amp;#34; , monospace ; font-size: 9.8pt&quot;&gt;&lt;span style=&quot;color: #9876aa ; font-weight: bold ; font-style: italic&quot;&gt;:Array&lt;/span&gt;&lt;/pre&gt;" style="rounded=0;whiteSpace=wrap;html=1;" parent="33" vertex="1"><mxGeometry x="273" y="140" width="188" height="87" as="geometry"/></mxCell><mxCell id="73" value="&lt;pre style=&quot;background-color: #000000 ; color: #a9b7c6 ; font-family: &amp;#34;jetbrains mono&amp;#34; , monospace ; font-size: 9.8pt&quot;&gt;&lt;span style=&quot;color: #ffc66d ; font-style: italic&quot;&gt;isFeatureEnabled&lt;/span&gt;&lt;/pre&gt;" style="rounded=1;whiteSpace=wrap;html=1;" parent="33" vertex="1"><mxGeometry x="69" y="429" width="149" height="60" as="geometry"/></mxCell><mxCell id="39" style="rounded=0;orthogonalLoop=1;jettySize=auto;html=1;" parent="47" source="36" target="34" edge="1"><mxGeometry relative="1" as="geometry"/></mxCell><mxCell id="40" value="call" style="edgeLabel;html=1;align=center;verticalAlign=middle;resizable=0;points=[];" parent="39" vertex="1" connectable="0"><mxGeometry x="-0.1613" y="-3" relative="1" as="geometry"><mxPoint as="offset"/></mxGeometry></mxCell><mxCell id="45" style="edgeStyle=none;rounded=0;orthogonalLoop=1;jettySize=auto;html=1;dashed=1;" parent="47" source="34" target="44" edge="1"><mxGeometry relative="1" as="geometry"/></mxCell><mxCell id="46" value="trigger" style="edgeLabel;html=1;align=center;verticalAlign=middle;resizable=0;points=[];" parent="45" vertex="1" connectable="0"><mxGeometry x="0.0784" y="3" relative="1" as="geometry"><mxPoint as="offset"/></mxGeometry></mxCell><mxCell id="62" style="edgeStyle=none;rounded=0;orthogonalLoop=1;jettySize=auto;html=1;exitX=1;exitY=0.5;exitDx=0;exitDy=0;" parent="47" source="67" target="59" edge="1"><mxGeometry relative="1" as="geometry"><mxPoint x="651" y="234" as="sourcePoint"/></mxGeometry></mxCell><mxCell id="63" value="[every 5 s]" style="edgeLabel;html=1;align=center;verticalAlign=middle;resizable=0;points=[];" parent="62" vertex="1" connectable="0"><mxGeometry x="-0.2304" y="-2" relative="1" as="geometry"><mxPoint as="offset"/></mxGeometry></mxCell><mxCell id="69" style="edgeStyle=none;rounded=0;orthogonalLoop=1;jettySize=auto;html=1;" parent="47" source="65" target="44" edge="1"><mxGeometry relative="1" as="geometry"/></mxCell><mxCell id="70" value="[decide api already called]" style="edgeLabel;html=1;align=center;verticalAlign=middle;resizable=0;points=[];" parent="69" vertex="1" connectable="0"><mxGeometry x="-0.5542" y="1" relative="1" as="geometry"><mxPoint x="-73" y="-2" as="offset"/></mxGeometry></mxCell><mxCell id="74" style="edgeStyle=none;rounded=0;orthogonalLoop=1;jettySize=auto;html=1;" parent="47" source="72" target="73" edge="1"><mxGeometry relative="1" as="geometry"/></mxCell><mxCell id="98" value="notify" style="rounded=0;orthogonalLoop=1;jettySize=auto;html=1;dashed=1;" edge="1" parent="47" source="44" target="52"><mxGeometry relative="1" as="geometry"/></mxCell><mxCell id="75" value="Core mobile" style="swimlane;fillColor=#0050ef;fontColor=#ffffff;strokeColor=#001DBC;swimlaneFillColor=none;" parent="1" vertex="1"><mxGeometry x="-323.5" y="845" width="934.5" height="440" as="geometry"/></mxCell><mxCell id="81" value="PosthogContextProvider" style="swimlane;" parent="75" vertex="1"><mxGeometry x="57" y="56" width="444" height="351" as="geometry"/></mxCell><mxCell id="93" value="" style="edgeStyle=none;rounded=0;orthogonalLoop=1;jettySize=auto;html=1;" parent="81" source="84" target="92" edge="1"><mxGeometry relative="1" as="geometry"/></mxCell><mxCell id="84" value="&lt;pre style=&quot;background-color: #000000 ; color: #a9b7c6 ; font-family: &amp;#34;jetbrains mono&amp;#34; , monospace ; font-size: 9.8pt&quot;&gt;&lt;span style=&quot;color: #ffc66d&quot;&gt;init&lt;/span&gt;&lt;/pre&gt;" style="rounded=1;whiteSpace=wrap;html=1;" parent="81" vertex="1"><mxGeometry x="63.5" y="52" width="120" height="60" as="geometry"/></mxCell><mxCell id="88" value="&lt;pre style=&quot;background-color: #000000 ; color: #a9b7c6 ; font-family: &amp;#34;jetbrains mono&amp;#34; , monospace ; font-size: 9.8pt&quot;&gt;&lt;span style=&quot;color: #ffc66d&quot;&gt;call decide api&lt;/span&gt;&lt;/pre&gt;" style="rounded=1;whiteSpace=wrap;html=1;" parent="81" vertex="1"><mxGeometry x="48.75" y="264" width="149.5" height="60" as="geometry"/></mxCell><mxCell id="94" value="[each minute]" style="edgeStyle=none;rounded=0;orthogonalLoop=1;jettySize=auto;html=1;" parent="81" source="92" target="88" edge="1"><mxGeometry relative="1" as="geometry"/></mxCell><mxCell id="92" value="" style="rhombus;whiteSpace=wrap;html=1;rounded=1;" parent="81" vertex="1"><mxGeometry x="83.5" y="141" width="80" height="80" as="geometry"/></mxCell><mxCell id="96" value="&lt;pre style=&quot;background-color: #000000 ; color: #a9b7c6 ; font-family: &amp;#34;jetbrains mono&amp;#34; , monospace ; font-size: 9.8pt&quot;&gt;&lt;pre style=&quot;font-family: &amp;#34;jetbrains mono&amp;#34; , monospace ; font-size: 9.8pt&quot;&gt;flags : State&lt;/pre&gt;&lt;/pre&gt;" style="rounded=0;whiteSpace=wrap;html=1;" parent="81" vertex="1"><mxGeometry x="244" y="145.5" width="120" height="60" as="geometry"/></mxCell><mxCell id="82" value="posthog-react-native" style="swimlane;fillColor=#008a00;fontColor=#ffffff;strokeColor=#005700;" parent="75" vertex="1"><mxGeometry x="593" y="56" width="248" height="154" as="geometry"/></mxCell><mxCell id="83" value="&lt;pre style=&quot;background-color: #000000 ; color: #a9b7c6 ; font-family: &amp;#34;jetbrains mono&amp;#34; , monospace ; font-size: 9.8pt&quot;&gt;&lt;span style=&quot;color: #ffc66d&quot;&gt;setup&lt;/span&gt;&lt;/pre&gt;" style="rounded=1;whiteSpace=wrap;html=1;" parent="82" vertex="1"><mxGeometry x="64" y="55" width="120" height="60" as="geometry"/></mxCell><mxCell id="85" style="edgeStyle=none;rounded=0;orthogonalLoop=1;jettySize=auto;html=1;" parent="75" source="84" target="83" edge="1"><mxGeometry relative="1" as="geometry"/></mxCell><mxCell id="97" style="edgeStyle=none;rounded=0;orthogonalLoop=1;jettySize=auto;html=1;" parent="75" source="89" target="96" edge="1"><mxGeometry relative="1" as="geometry"/></mxCell><mxCell id="89" value="&lt;pre style=&quot;background-color: #000000 ; color: #a9b7c6 ; font-family: &amp;#34;jetbrains mono&amp;#34; , monospace ; font-size: 9.8pt&quot;&gt;&lt;span style=&quot;color: #6a8759&quot;&gt;data-posthog.avax.network&lt;/span&gt;&lt;/pre&gt;" style="ellipse;shape=cloud;whiteSpace=wrap;html=1;" parent="75" vertex="1"><mxGeometry x="560" y="256" width="352" height="145" as="geometry"/></mxCell><mxCell id="90" style="edgeStyle=none;rounded=0;orthogonalLoop=1;jettySize=auto;html=1;" parent="75" source="88" target="89" edge="1"><mxGeometry relative="1" as="geometry"/></mxCell><mxCell id="105" value="Used for analytics" style="whiteSpace=wrap;html=1;shape=mxgraph.basic.oval_callout" vertex="1" parent="75"><mxGeometry x="841" y="-13" width="126.5" height="81" as="geometry"/></mxCell><mxCell id="100" value="&lt;h1&gt;Implementations of posthog feature flags&lt;/h1&gt;&lt;p&gt;Above: Implementation on BrowEx using posthog-sdk and posthog-js&amp;nbsp;&lt;/p&gt;&lt;p&gt;Below: Simplified implementation on Core mobile&lt;/p&gt;" style="text;html=1;strokeColor=none;fillColor=none;spacing=5;spacingTop=-20;whiteSpace=wrap;overflow=hidden;rounded=0;" vertex="1" parent="1"><mxGeometry x="-244" y="667" width="811" height="120" as="geometry"/></mxCell><mxCell id="106" value="" style="whiteSpace=wrap;html=1;" vertex="1" parent="1"><mxGeometry x="15" y="768" width="120" height="60" as="geometry"/></mxCell><mxCell id="107" value="" style="whiteSpace=wrap;html=1;" vertex="1" parent="1"><mxGeometry x="15" y="768" width="120" height="60" as="geometry"/></mxCell><mxCell id="108" value="" style="whiteSpace=wrap;html=1;" vertex="1" parent="1"><mxGeometry x="15" y="768" width="120" height="60" as="geometry"/></mxCell></root></mxGraphModel></diagram></mxfile>